<svg width="30" height="30" viewBox="0 0 30 30" fill="none" xmlns="http://www.w3.org/2000/svg">
<path d="M14.1352 17.809C13.2375 17.202 12.334 16.6037 11.4363 15.9967C11.3191 15.9158 11.2354 15.91 11.1141 15.9967L8.83594 17.5271C10.6641 18.7441 14.2969 21.1711 14.2969 21.1711V18.0193C14.2969 17.9479 14.2061 17.8564 14.1352 17.809ZM11.4311 14.1018C12.3369 13.5064 13.2375 12.9037 14.1328 12.2936C14.1802 12.2555 14.2193 12.2081 14.2475 12.1542C14.2757 12.1004 14.2925 12.0413 14.2969 11.9807V8.95137C14.2969 8.95137 10.6641 11.3607 8.83242 12.5807C9.63516 13.1174 10.3951 13.6301 11.1633 14.1299C11.223 14.1686 11.3625 14.1463 11.4311 14.1018ZM15.8109 12.2666C16.7371 12.8943 17.6674 13.5158 18.6018 14.1311C18.6366 14.1484 18.675 14.1574 18.714 14.1574C18.7529 14.1574 18.7913 14.1484 18.8262 14.1311L21.1559 12.5801L15.7031 8.93437V12.0604C15.7053 12.1004 15.716 12.1396 15.7346 12.1752C15.7532 12.2108 15.7793 12.2419 15.8109 12.2666ZM15.1236 13.4982C15.0798 13.4781 15.0318 13.4685 14.9836 13.4702C14.9353 13.4719 14.8882 13.485 14.8459 13.5082C14.5635 13.684 14.291 13.8715 14.0156 14.0561C13.5322 14.3801 12.5303 15.0521 12.5303 15.0521L14.8061 16.5674C14.8611 16.601 14.9241 16.6194 14.9886 16.6205C15.0531 16.6216 15.1167 16.6055 15.1729 16.5738L17.458 15.0504C17.458 15.0504 15.4617 13.7227 15.1236 13.4982ZM8.26172 13.8938V16.2146L9.99727 15.0521L8.26172 13.8938Z" fill="#62ED89" fill-opacity="0.7"/>
<path d="M15 1.875C7.75137 1.875 1.875 7.75137 1.875 15C1.875 22.2486 7.75137 28.125 15 28.125C22.2486 28.125 28.125 22.2486 28.125 15C28.125 7.75137 22.2486 1.875 15 1.875ZM23.1445 17.4023C23.1445 17.741 22.9893 17.9801 22.7045 18.1693C20.2939 19.7709 17.8859 21.3762 15.4805 22.9852C15.1377 23.2148 14.826 23.2049 14.4844 22.977C12.0949 21.3754 9.6998 19.7803 7.29902 18.1916C6.99961 17.993 6.8543 17.7486 6.8543 17.3871V12.7148C6.8543 12.3551 7.00195 12.109 7.30078 11.9109C9.69785 10.3213 12.102 8.72578 14.492 7.125C14.833 6.89707 15.1418 6.89062 15.4846 7.11973C17.8885 8.72949 20.2959 10.3348 22.7068 11.9355C22.9811 12.1178 23.1434 12.3428 23.1434 12.6773L23.1445 17.4023Z" fill="#62ED89" fill-opacity="0.7"/>
<path d="M18.5303 16.0096C17.6479 16.6088 16.7613 17.2014 15.8707 17.7873C15.7295 17.8799 15.7014 17.9813 15.7031 18.15V21.1582L21.1524 17.5254L18.8947 16.009C18.76 15.9146 18.6668 15.917 18.5303 16.0096ZM21.6797 16.2117V13.8902L19.9459 15.0545L21.6797 16.2117Z" fill="#62ED89" fill-opacity="0.7"/>
</svg>
