<svg width="20" height="31" viewBox="0 0 20 31" fill="none" xmlns="http://www.w3.org/2000/svg">
<path d="M9.99438 15.2747C9.99438 12.4691 12.2292 10.1831 14.9972 10.1831C17.7539 10.1831 20.0001 12.4576 20.0001 15.2747C20.0001 18.0803 17.7652 20.3663 14.9972 20.3663C12.2406 20.3663 9.99438 18.0803 9.99438 15.2747Z" fill="#77EC98"/>
<path d="M0 25.4463C0 22.6407 2.23483 20.3547 5.00284 20.3547H10.0057V25.4463C10.0057 28.2518 7.77085 30.5379 5.00284 30.5379C2.23483 30.5379 0 28.2634 0 25.4463Z" fill="#0ACF83"/>
<path d="M9.99438 0.0115455V10.1831H14.9972C17.7539 10.1831 20.0001 7.90867 20.0001 5.09156C20.0001 2.28601 17.7652 0 14.9972 0H9.99438V0.0115455Z" fill="#61C97F"/>
<path d="M0 5.10311C0 7.90867 2.23483 10.1947 5.00284 10.1947H10.0057V0.0115471H5.00284C2.23483 0.0115471 0 2.28601 0 5.10311Z" fill="#399C5D"/>
<path d="M0 15.2747C0 18.0803 2.23483 20.3663 5.00284 20.3663H10.0057V10.1831H5.00284C2.23483 10.1831 0 12.4691 0 15.2747Z" fill="#6AC583"/>
</svg>
