<svg width="42" height="42" viewBox="0 0 42 42" fill="none" xmlns="http://www.w3.org/2000/svg">
<path d="M35 3.5C36.3924 3.5 37.7277 4.05312 38.7123 5.03769C39.6969 6.02226 40.25 7.35761 40.25 8.75V12.25H36.75V33.25C36.75 34.6424 36.1969 35.9777 35.2123 36.9623C34.2277 37.9469 32.8924 38.5 31.5 38.5H7C5.60761 38.5 4.27226 37.9469 3.28769 36.9623C2.30312 35.9777 1.75 34.6424 1.75 33.25V29.75H29.75V33.25C29.7501 33.6786 29.9074 34.0923 30.1923 34.4127C30.4771 34.733 30.8696 34.9376 31.2952 34.9878L31.5 35C31.9286 34.9999 32.3423 34.8426 32.6627 34.5577C32.983 34.2729 33.1876 33.8804 33.2378 33.4548L33.25 33.25V26.25H5.25V8.75C5.25 7.35761 5.80312 6.02226 6.78769 5.03769C7.77226 4.05312 9.10761 3.5 10.5 3.5H35Z" fill="#45AA69"/>
</svg>
