<svg width="640" height="482" viewBox="0 0 640 482" fill="none" xmlns="http://www.w3.org/2000/svg">
<circle cx="423.747" cy="396.747" r="59.7469" stroke="#62ED89" stroke-width="2"/>
<g clip-path="url(#clip0_46_150)">
<path d="M423.747 373.857C413.421 373.857 406.967 378.944 404.386 389.116C408.258 384.029 412.776 382.123 417.938 383.394C420.884 384.119 422.99 386.225 425.321 388.556C429.117 392.352 433.51 396.746 443.108 396.746C453.434 396.746 459.888 391.66 462.469 381.486C458.597 386.573 454.079 388.481 448.916 387.209C445.971 386.484 443.866 384.378 441.535 382.047C437.739 378.251 433.344 373.857 423.747 373.857ZM404.386 396.746C394.06 396.746 387.606 401.833 385.025 412.007C388.897 406.92 393.415 405.012 398.578 406.284C401.523 407.011 403.628 409.116 405.959 411.446C409.755 415.242 414.15 419.637 423.747 419.637C434.073 419.637 440.527 414.55 443.108 404.377C439.236 409.463 434.718 411.371 429.556 410.099C426.61 409.375 424.504 407.267 422.173 404.938C418.377 401.141 413.983 396.746 404.386 396.746Z" fill="#06B6D4"/>
</g>
<circle cx="325.943" cy="209.943" r="50.943" stroke="#62ED89" stroke-width="2"/>
<g clip-path="url(#clip1_46_150)">
<path d="M303.053 226.93C303.053 230.191 305.696 232.833 308.956 232.833H342.93C346.191 232.833 348.833 230.19 348.833 226.93V192.956C348.833 189.695 346.19 187.053 342.93 187.053H308.956C305.695 187.053 303.053 189.696 303.053 192.956V226.93Z" fill="#563D7C"/>
<path d="M322.037 207.303V200.82H327.744C328.287 200.82 328.811 200.865 329.316 200.956C329.821 201.046 330.267 201.208 330.655 201.441C331.043 201.674 331.354 201.998 331.587 202.412C331.82 202.826 331.936 203.356 331.936 204.003C331.936 205.168 331.587 206.009 330.888 206.527C330.189 207.044 329.297 207.303 328.209 207.303H322.037ZM315.942 196.084V223.802H329.374C330.616 223.802 331.826 223.647 333.004 223.336C334.182 223.026 335.23 222.547 336.149 221.9C337.067 221.253 337.798 220.418 338.342 219.396C338.886 218.374 339.157 217.164 339.157 215.766C339.157 214.032 338.737 212.55 337.896 211.321C337.054 210.092 335.78 209.231 334.071 208.739C335.314 208.144 336.252 207.381 336.886 206.449C337.52 205.517 337.837 204.353 337.837 202.955C337.837 201.661 337.624 200.574 337.197 199.694C336.77 198.814 336.168 198.109 335.391 197.578C334.615 197.048 333.683 196.666 332.596 196.433C331.509 196.2 330.306 196.084 328.986 196.084H315.942ZM322.037 219.066V211.457H328.675C329.995 211.457 331.056 211.761 331.859 212.369C332.661 212.978 333.062 213.993 333.062 215.417C333.062 216.142 332.939 216.737 332.693 217.203C332.448 217.668 332.118 218.037 331.703 218.309C331.289 218.581 330.811 218.775 330.267 218.891C329.723 219.008 329.154 219.066 328.559 219.066H322.037Z" fill="white"/>
</g>
<circle cx="296.853" cy="60.7469" r="59.7469" stroke="#62ED89" stroke-width="2"/>
<g clip-path="url(#clip2_46_150)">
<path d="M273.399 91.8711L268.681 34.4431L325.026 34.5585L320.037 91.8711L297.066 98.4959L273.399 91.8711Z" fill="#1B73BA"/>
<path d="M297.066 92.9496V39.9124L320.269 39.9894L316.131 87.4418L297.066 92.9496Z" fill="#1C88C7"/>
<path d="M314.507 46.6915H278.813L279.78 53.624H296.718L280.05 60.7498L281.017 67.4515H305.574L304.684 76.8108L296.37 78.4287L288.829 76.503L288.249 71.1875H281.326L282.254 82.2421L297.104 86.3633L311.336 81.857L313.154 60.2488H298.109L314.506 53.4702L314.507 46.6915Z" fill="white"/>
</g>
<circle cx="578.747" cy="334.747" r="59.7469" stroke="#62ED89" stroke-width="2"/>
<g clip-path="url(#clip3_46_150)">
<path d="M555.292 359.893L550.574 304.038L606.919 304.15L601.931 359.893L578.96 366.337L555.292 359.893Z" fill="#E34F26"/>
<path d="M578.96 360.942V309.357L602.163 309.432L598.025 355.585L578.96 360.942Z" fill="#EF652A"/>
<path d="M595.782 322.244L596.439 315.426H560.745L562.717 336.33H587.351L586.385 345.246L578.496 347.306L570.491 345.058L570.066 339.738H562.988L563.955 350.602L578.496 354.536L593.152 350.602L595.124 329.399H569.253L568.518 322.244H595.782Z" fill="white"/>
</g>
<circle cx="544.747" cy="122.747" r="59.7469" stroke="#62ED89" stroke-width="2"/>
<g clip-path="url(#clip4_46_150)">
<path d="M516.574 94.5744H572.919V150.919H516.574V94.5744Z" fill="#F0DB4F"/>
<path d="M568.308 137.481C567.895 134.91 566.219 132.752 561.254 130.738C559.529 129.945 557.607 129.378 557.034 128.071C556.83 127.31 556.803 126.882 556.932 126.421C557.301 124.927 559.085 124.461 560.499 124.889C561.409 125.195 562.272 125.896 562.791 127.016C565.223 125.441 565.217 125.452 566.915 124.37C566.294 123.406 565.962 122.961 565.555 122.549C564.093 120.915 562.1 120.074 558.913 120.139C558.362 120.208 557.805 120.283 557.253 120.353C555.662 120.755 554.147 121.59 553.258 122.709C550.59 125.736 551.351 131.033 554.597 133.213C557.794 135.612 562.491 136.158 563.091 138.402C563.675 141.15 561.072 142.039 558.485 141.723C556.578 141.327 555.518 140.357 554.372 138.595C552.261 139.816 552.261 139.816 550.092 141.064C550.606 142.189 551.147 142.698 552.01 143.673C556.091 147.813 566.305 147.609 568.137 141.343C568.211 141.129 568.704 139.693 568.308 137.481ZM547.205 120.471H541.935C541.935 125.023 541.914 129.544 541.914 134.096C541.914 136.994 542.064 139.65 541.592 140.464C540.821 142.066 538.823 141.868 537.913 141.557C536.986 141.102 536.515 140.454 535.968 139.538C535.819 139.275 535.706 139.072 535.668 139.056C534.239 139.929 532.814 140.807 531.384 141.68C532.096 143.142 533.146 144.412 534.49 145.237C536.499 146.442 539.198 146.811 542.021 146.163C543.858 145.628 545.443 144.519 546.273 142.832C547.473 140.62 547.216 137.942 547.205 134.98C547.232 130.149 547.205 125.318 547.205 120.471Z" fill="#323330"/>
</g>
<circle cx="323.216" cy="316.216" r="34.2156" stroke="#62ED89" stroke-width="2"/>
<g clip-path="url(#clip5_46_150)">
<path d="M322.648 301.273C322.582 301.279 322.371 301.3 322.182 301.315C317.81 301.709 313.715 304.068 311.121 307.694C309.677 309.71 308.753 311.997 308.404 314.419C308.281 315.264 308.266 315.514 308.266 316.66C308.266 317.807 308.281 318.056 308.404 318.902C309.24 324.682 313.354 329.538 318.932 331.338C319.931 331.66 320.984 331.879 322.182 332.012C322.648 332.063 324.664 332.063 325.13 332.012C327.197 331.783 328.948 331.271 330.676 330.39C330.94 330.254 330.991 330.218 330.955 330.188C330.931 330.17 329.803 328.657 328.449 326.827L325.988 323.503L322.904 318.938C321.207 316.429 319.811 314.377 319.799 314.377C319.787 314.374 319.774 316.402 319.768 318.878C319.759 323.214 319.756 323.388 319.702 323.49C319.624 323.638 319.564 323.698 319.437 323.764C319.341 323.812 319.257 323.821 318.803 323.821H318.282L318.144 323.734C318.053 323.677 317.987 323.602 317.942 323.515L317.879 323.379L317.885 317.346L317.894 311.311L317.987 311.193C318.035 311.13 318.138 311.049 318.21 311.01C318.333 310.95 318.381 310.944 318.902 310.944C319.516 310.944 319.618 310.968 319.777 311.142C319.823 311.19 321.493 313.706 323.49 316.736C325.488 319.766 328.22 323.903 329.562 325.934L331.999 329.626L332.123 329.544C333.215 328.834 334.37 327.823 335.285 326.77C337.232 324.535 338.487 321.809 338.908 318.902C339.031 318.056 339.046 317.807 339.046 316.66C339.046 315.514 339.031 315.264 338.908 314.419C338.071 308.639 333.958 303.783 328.38 301.983C327.396 301.664 326.349 301.445 325.175 301.312C324.887 301.282 322.898 301.249 322.648 301.273ZM328.948 310.583C329.093 310.655 329.21 310.793 329.252 310.938C329.276 311.016 329.282 312.689 329.276 316.459L329.267 321.869L328.314 320.406L327.357 318.944V315.012C327.357 312.469 327.369 311.04 327.387 310.971C327.435 310.802 327.54 310.67 327.685 310.592C327.808 310.528 327.853 310.522 328.326 310.522C328.771 310.522 328.849 310.528 328.948 310.583Z" fill="#62ED89"/>
<path d="M331.849 329.692C331.744 329.758 331.71 329.803 331.804 329.752C331.87 329.713 331.978 329.631 331.96 329.628C331.951 329.628 331.9 329.659 331.849 329.692ZM331.641 329.827C331.587 329.869 331.587 329.872 331.653 329.839C331.689 329.821 331.719 329.8 331.719 329.794C331.719 329.77 331.704 329.776 331.641 329.827ZM331.491 329.917C331.437 329.959 331.437 329.962 331.503 329.929C331.539 329.911 331.569 329.89 331.569 329.884C331.569 329.86 331.554 329.866 331.491 329.917ZM331.34 330.008C331.286 330.05 331.286 330.053 331.352 330.02C331.389 330.002 331.419 329.98 331.419 329.974C331.419 329.95 331.404 329.956 331.34 330.008ZM331.112 330.128C330.997 330.188 331.003 330.212 331.118 330.155C331.169 330.128 331.208 330.101 331.208 330.095C331.208 330.074 331.205 330.077 331.112 330.128Z" fill="#62ED89"/>
</g>
<circle cx="55.4645" cy="306.465" r="54.4645" stroke="#62ED89" stroke-width="2"/>
<g clip-path="url(#clip6_46_150)">
<path d="M55.9048 326.477C77.5418 326.477 95.0821 317.464 95.0821 306.346C95.0821 295.228 77.5418 286.216 55.9048 286.216C34.2677 286.216 16.7274 295.228 16.7274 306.346C16.7274 317.464 34.2677 326.477 55.9048 326.477Z" fill="#62ED89"/>
<path fill-rule="evenodd" clip-rule="evenodd" d="M27.7292 318.266L32.0228 296.811H41.9509C46.2442 297.076 48.391 299.194 48.391 302.903C48.391 309.26 43.2927 312.969 38.7307 312.704H33.9011L32.8278 318.266H27.7292ZM34.9742 308.731L36.3161 300.784H39.8044C41.6828 300.784 43.0243 301.579 43.0243 303.168C42.7561 307.671 40.6094 308.466 38.1944 308.731H34.9742ZM47.3935 312.704L51.6867 291.248H56.7853L55.7119 296.811H60.5417C64.8353 297.076 66.4453 299.194 65.9087 301.844L64.0304 312.704H58.6637L60.542 302.903C60.8102 301.579 60.8102 300.784 58.9321 300.784H54.9069L52.492 312.704H47.3935ZM63.6866 318.266L67.9799 296.811H77.9083C82.2019 297.076 84.3487 299.194 84.3487 302.903C84.3487 309.26 79.2501 312.969 74.6884 312.704H69.8583L68.7849 318.266H63.6866ZM70.9314 308.731L72.2732 300.784H75.7618C77.6402 300.784 78.9817 301.579 78.9817 303.168C78.7136 307.671 76.5668 308.466 74.1519 308.731H70.9317H70.9314Z" fill="#031220"/>
</g>
<circle cx="405.248" cy="118.575" r="41.2587" stroke="#62ED89" stroke-width="2"/>
<g clip-path="url(#clip7_46_150)">
<path d="M405.17 99.2063C394.031 99.2063 384.999 108.288 384.999 119.49C384.999 128.452 390.779 136.055 398.793 138.738C399.801 138.925 400.171 138.298 400.171 137.762C400.171 137.278 400.152 135.68 400.144 133.985C394.532 135.212 393.348 131.592 393.348 131.592C392.431 129.248 391.109 128.624 391.109 128.624C389.279 127.365 391.247 127.391 391.247 127.391C393.272 127.534 394.339 129.481 394.339 129.481C396.138 132.582 399.057 131.686 400.208 131.168C400.389 129.857 400.912 128.962 401.489 128.455C397.009 127.942 392.299 126.203 392.299 118.431C392.299 116.216 393.087 114.407 394.377 112.986C394.168 112.475 393.478 110.412 394.573 107.618C394.573 107.618 396.267 107.073 400.121 109.698C401.73 109.248 403.456 109.023 405.17 109.015C406.884 109.023 408.611 109.248 410.223 109.698C414.073 107.073 415.764 107.618 415.764 107.618C416.862 110.412 416.171 112.475 415.962 112.986C417.255 114.407 418.038 116.216 418.038 118.431C418.038 126.221 413.319 127.937 408.828 128.439C409.551 129.069 410.196 130.303 410.196 132.195C410.196 134.909 410.172 137.094 410.172 137.762C410.172 138.302 410.535 138.934 411.558 138.735C419.568 136.05 425.34 128.449 425.34 119.49C425.34 108.288 416.309 99.2063 405.17 99.2063Z" fill="#62ED89"/>
<path d="M392.554 128.101C392.509 128.202 392.352 128.232 392.208 128.163C392.062 128.097 391.979 127.959 392.027 127.858C392.07 127.755 392.228 127.726 392.374 127.795C392.521 127.861 392.605 128 392.554 128.101ZM393.546 128.991C393.45 129.081 393.262 129.039 393.134 128.898C393.002 128.756 392.977 128.567 393.075 128.476C393.174 128.387 393.357 128.428 393.489 128.57C393.621 128.713 393.646 128.901 393.546 128.992M394.227 130.13C394.103 130.217 393.901 130.136 393.776 129.955C393.652 129.775 393.652 129.559 393.779 129.472C393.904 129.385 394.103 129.463 394.229 129.642C394.353 129.826 394.353 130.042 394.226 130.131M395.378 131.45C395.267 131.572 395.032 131.539 394.859 131.372C394.683 131.209 394.634 130.976 394.745 130.854C394.857 130.731 395.093 130.766 395.267 130.931C395.442 131.095 395.496 131.329 395.378 131.45ZM396.865 131.895C396.817 132.054 396.59 132.126 396.361 132.059C396.133 131.989 395.984 131.803 396.03 131.643C396.078 131.483 396.305 131.407 396.536 131.48C396.763 131.549 396.913 131.734 396.865 131.895ZM398.559 132.084C398.564 132.251 398.371 132.39 398.131 132.393C397.889 132.398 397.694 132.263 397.692 132.098C397.692 131.93 397.881 131.792 398.122 131.788C398.362 131.783 398.559 131.918 398.559 132.084ZM400.222 132.02C400.251 132.183 400.084 132.351 399.846 132.395C399.612 132.438 399.395 132.338 399.365 132.176C399.336 132.008 399.506 131.841 399.74 131.797C399.978 131.756 400.192 131.854 400.222 132.02Z" fill="#62ED89"/>
</g>
<circle cx="71.0195" cy="161.019" r="43.0195" stroke="#62ED89" stroke-width="2"/>
<g clip-path="url(#clip8_46_150)">
<path d="M95.6705 161.024C95.6705 157.851 91.6534 154.844 85.4947 152.979C86.9159 146.769 86.2842 141.828 83.5009 140.246C82.8594 139.875 82.1093 139.699 81.2901 139.699V141.877C81.7441 141.877 82.1093 141.965 82.4153 142.131C83.7576 142.892 84.3399 145.792 83.8859 149.522C83.7773 150.44 83.5996 151.407 83.3825 152.393C81.448 151.924 79.3359 151.563 77.1152 151.329C75.7827 149.522 74.401 147.882 73.0093 146.446C76.2269 143.488 79.247 141.867 81.3 141.867V139.69C78.5858 139.69 75.0326 141.603 71.44 144.923C67.8474 141.623 64.2942 139.729 61.58 139.729V141.906C63.6231 141.906 66.6531 143.517 69.8707 146.456C68.4889 147.892 67.1071 149.522 65.7945 151.329C63.5639 151.563 61.4517 151.924 59.5172 152.403C59.2902 151.426 59.1224 150.479 59.004 149.571C58.5401 145.841 59.1126 142.941 60.445 142.17C60.7411 141.994 61.126 141.916 61.58 141.916V139.738C60.751 139.738 60.0009 139.914 59.3494 140.285C56.576 141.867 55.9542 146.798 57.3853 152.988C51.2463 154.863 47.249 157.861 47.249 161.024C47.249 164.198 51.266 167.205 57.4248 169.07C56.0036 175.28 56.6352 180.221 59.4185 181.803C60.0601 182.174 60.8102 182.349 61.6393 182.349C64.3535 182.349 67.9066 180.436 71.4992 177.116C75.0918 180.416 78.645 182.31 81.3592 182.31C82.1883 182.31 82.9384 182.135 83.5898 181.763C86.3632 180.182 86.985 175.251 85.5539 169.06C91.6732 167.195 95.6705 164.188 95.6705 161.024ZM82.8199 154.512C82.4547 155.771 82.0007 157.07 81.4875 158.369C81.0828 157.587 80.6584 156.806 80.1945 156.025C79.7405 155.244 79.2569 154.482 78.7733 153.74C80.1748 153.945 81.527 154.199 82.8199 154.512ZM78.2995 164.911C77.5297 166.229 76.7401 167.478 75.9209 168.64C74.4503 168.767 72.96 168.836 71.4597 168.836C69.9694 168.836 68.479 168.767 67.0183 168.65C66.1991 167.488 65.3997 166.248 64.6298 164.94C63.8797 163.661 63.1987 162.362 62.5769 161.054C63.1888 159.745 63.8797 158.437 64.6199 157.158C65.3898 155.84 66.1794 154.59 66.9986 153.428C68.4692 153.301 69.9595 153.233 71.4597 153.233C72.9501 153.233 74.4404 153.301 75.9012 153.418C76.7204 154.58 77.5198 155.82 78.2897 157.128C79.0398 158.408 79.7208 159.706 80.3426 161.015C79.7208 162.323 79.0398 163.631 78.2995 164.911ZM81.4875 163.641C82.0205 164.95 82.4745 166.258 82.8495 167.527C81.5566 167.84 80.1945 168.103 78.7832 168.308C79.2668 167.557 79.7504 166.785 80.2044 165.994C80.6584 165.213 81.0828 164.422 81.4875 163.641ZM71.4795 174.06C70.5616 173.122 69.6437 172.077 68.7357 170.935C69.624 170.974 70.532 171.003 71.4499 171.003C72.3776 171.003 73.2955 170.984 74.1937 170.935C73.3054 172.077 72.3875 173.122 71.4795 174.06ZM64.1363 168.308C62.7348 168.103 61.3826 167.85 60.0897 167.537C60.4549 166.277 60.9089 164.979 61.4221 163.68C61.8268 164.461 62.2512 165.242 62.7151 166.024C63.1789 166.805 63.6527 167.566 64.1363 168.308ZM71.4301 147.989C72.348 148.927 73.2659 149.971 74.1739 151.114C73.2857 151.075 72.3776 151.045 71.4597 151.045C70.532 151.045 69.6141 151.065 68.7159 151.114C69.6042 149.971 70.5221 148.927 71.4301 147.989ZM64.1265 153.74C63.6428 154.492 63.1592 155.263 62.7052 156.054C62.2512 156.836 61.8268 157.617 61.4221 158.398C60.8891 157.089 60.4351 155.781 60.0601 154.512C61.353 154.209 62.7151 153.945 64.1265 153.74ZM55.1942 165.965C51.7003 164.491 49.4401 162.557 49.4401 161.024C49.4401 159.491 51.7003 157.548 55.1942 156.084C56.0431 155.722 56.9708 155.4 57.9282 155.098C58.4908 157.011 59.231 159.003 60.1489 161.044C59.2409 163.075 58.5105 165.057 57.9578 166.961C56.9807 166.658 56.0529 166.326 55.1942 165.965ZM60.5042 179.918C59.1619 179.156 58.5796 176.256 59.0336 172.527C59.1422 171.609 59.3198 170.642 59.537 169.656C61.4715 170.125 63.5836 170.486 65.8043 170.72C67.1368 172.527 68.5185 174.167 69.9102 175.602C66.6926 178.561 63.6724 180.182 61.6195 180.182C61.1754 180.172 60.8003 180.084 60.5042 179.918ZM83.9155 172.478C84.3794 176.208 83.8069 179.108 82.4745 179.879C82.1784 180.055 81.7935 180.133 81.3394 180.133C79.2964 180.133 76.2664 178.522 73.0488 175.583C74.4306 174.147 75.8123 172.517 77.125 170.71C79.3556 170.476 81.4678 170.115 83.4022 169.636C83.6293 170.623 83.8069 171.57 83.9155 172.478ZM87.7154 165.965C86.8666 166.326 85.9388 166.649 84.9814 166.951C84.4188 165.037 83.6786 163.046 82.7607 161.005C83.6687 158.974 84.3991 156.992 84.9518 155.088C85.9289 155.39 86.8567 155.722 87.7252 156.084C91.2192 157.558 93.4794 159.491 93.4794 161.024C93.4695 162.557 91.2093 164.5 87.7154 165.965Z" fill="#61DAFB"/>
<path d="M71.4498 165.487C73.9409 165.487 75.9604 163.489 75.9604 161.024C75.9604 158.56 73.9409 156.562 71.4498 156.562C68.9588 156.562 66.9393 158.56 66.9393 161.024C66.9393 163.489 68.9588 165.487 71.4498 165.487Z" fill="#61DAFB"/>
</g>
<circle cx="196.465" cy="183.465" r="54.4645" stroke="#62ED89" stroke-width="2"/>
<g clip-path="url(#clip9_46_150)">
<path d="M196.959 183.036C196.959 177.46 201.4 172.917 206.902 172.917C212.38 172.917 216.844 177.437 216.844 183.036C216.844 188.612 212.403 193.155 206.902 193.155C201.423 193.155 196.959 188.612 196.959 183.036Z" fill="#1ABCFE"/>
<path d="M177.096 203.251C177.096 197.675 181.538 193.132 187.039 193.132H196.981V203.251C196.981 208.827 192.54 213.37 187.039 213.37C181.538 213.37 177.096 208.85 177.096 203.251Z" fill="#0ACF83"/>
<path d="M196.959 152.702V172.917H206.902C212.38 172.917 216.844 168.396 216.844 162.798C216.844 157.222 212.403 152.679 206.902 152.679H196.959V152.702Z" fill="#FF7262"/>
<path d="M177.096 162.821C177.096 168.396 181.538 172.94 187.039 172.94H196.981V152.702H187.039C181.538 152.702 177.096 157.222 177.096 162.821Z" fill="#F24E1E"/>
<path d="M177.096 183.036C177.096 188.612 181.538 193.155 187.039 193.155H196.981V172.917H187.039C181.538 172.917 177.096 177.46 177.096 183.036Z" fill="#A259FF"/>
</g>
<circle cx="455.465" cy="250.465" r="54.4645" stroke="#62ED89" stroke-width="2"/>
<g clip-path="url(#clip10_46_150)">
<path d="M448.357 252.775C447.071 259.736 445.375 264.8 443.27 267.946C441.629 270.378 439.832 271.594 437.875 271.594C437.353 271.594 436.711 271.437 435.947 271.126V269.446C436.319 269.502 436.757 269.53 437.26 269.53C438.173 269.53 438.908 269.28 439.469 268.777C440.139 268.164 440.475 267.477 440.475 266.714C440.475 266.194 440.213 265.124 439.692 263.508L436.226 252.77H439.328L441.815 260.801C442.374 262.624 442.607 263.897 442.514 264.623C443.875 260.997 444.825 257.047 445.365 252.777H448.356M434.662 266.661H431.504C431.393 261.342 431.086 256.343 430.582 251.657H430.556L425.748 266.661H423.342L418.563 251.657H418.535C418.18 256.156 417.957 261.155 417.864 266.661H414.985C415.17 259.967 415.637 253.695 416.381 247.839H420.295L424.851 261.667H424.879L429.463 247.839H433.208C434.027 254.698 434.512 260.973 434.659 266.661" fill="#00758F"/>
<path d="M490.396 266.658H481.425V247.837H484.444V264.341H490.396V266.656M467.835 262.891C467.07 261.664 466.689 259.695 466.689 256.98C466.689 252.241 468.133 249.869 471.021 249.869C472.531 249.869 473.639 250.437 474.347 251.57C475.11 252.797 475.492 254.75 475.492 257.427C475.492 262.204 474.048 264.595 471.16 264.595C469.651 264.595 468.542 264.028 467.835 262.893M479.071 267.112L475.603 265.406C475.911 265.152 476.205 264.879 476.469 264.566C477.943 262.838 478.679 260.282 478.679 256.897C478.679 250.67 476.228 247.555 471.328 247.555C468.924 247.555 467.051 248.344 465.71 249.926C464.235 251.655 463.501 254.203 463.501 257.567C463.501 260.875 464.153 263.303 465.456 264.845C466.645 266.239 468.442 266.936 470.849 266.936C471.747 266.936 472.57 266.826 473.318 266.606L477.834 269.228L479.065 267.112M462.186 261.441C462.186 263.037 461.599 264.347 460.427 265.373C459.254 266.393 457.678 266.906 455.705 266.906C453.86 266.906 452.07 266.316 450.338 265.148L451.149 263.531C452.64 264.275 453.989 264.645 455.2 264.645C456.336 264.645 457.225 264.393 457.869 263.895C458.51 263.392 458.896 262.693 458.896 261.805C458.896 260.687 458.114 259.732 456.682 258.931C455.354 258.194 454.032 257.448 452.714 256.693C451.282 255.65 450.563 254.531 450.563 252.688C450.563 251.163 451.098 249.931 452.168 248.994C453.241 248.053 454.625 247.583 456.319 247.583C458.071 247.583 459.664 248.05 461.098 248.98L460.369 250.596C459.143 250.076 457.932 249.815 456.738 249.815C455.77 249.815 455.023 250.048 454.503 250.514C453.98 250.976 453.657 251.572 453.657 252.298C453.657 253.413 454.456 254.38 455.929 255.198C457.268 255.922 459.979 257.464 459.979 257.464C461.453 258.505 462.188 259.615 462.188 261.443M492.546 266.658H493.046V264.744H493.7V264.352H491.866V264.744H492.546V266.658ZM496.352 266.658H496.824V264.352H496.115L495.538 265.924L494.909 264.352H494.226V266.658H494.672V264.903H494.697L495.355 266.658H495.695L496.352 264.903V266.658Z" fill="#F29111"/>
<path d="M465.303 216.141C464.506 216.129 463.81 216.428 463.451 217.307C462.836 218.786 464.363 220.241 464.888 220.992C465.275 221.515 465.777 222.107 466.049 222.697C466.209 223.084 466.255 223.494 466.415 223.903C466.78 224.904 467.121 226.018 467.6 226.952C467.85 227.43 468.123 227.931 468.443 228.361C468.626 228.612 468.945 228.724 469.013 229.135C468.695 229.589 468.67 230.272 468.489 230.842C467.667 233.411 467.987 236.596 469.149 238.483C469.514 239.051 470.38 240.303 471.544 239.825C472.57 239.416 472.343 238.119 472.638 236.983C472.706 236.708 472.66 236.527 472.797 236.345V236.392C473.116 237.028 473.437 237.64 473.733 238.28C474.44 239.393 475.67 240.552 476.696 241.325C477.242 241.736 477.675 242.44 478.36 242.691V242.622H478.315C478.177 242.418 477.972 242.326 477.79 242.168C477.379 241.758 476.925 241.258 476.605 240.802C475.649 239.53 474.804 238.119 474.053 236.664C473.688 235.957 473.369 235.185 473.072 234.481C472.936 234.208 472.936 233.798 472.707 233.662C472.364 234.161 471.864 234.595 471.614 235.206C471.181 236.186 471.135 237.391 470.975 238.641C470.885 238.665 470.93 238.641 470.885 238.686C470.155 238.505 469.904 237.754 469.63 237.118C468.946 235.503 468.831 232.909 469.425 231.045C469.583 230.568 470.269 229.068 469.994 228.612C469.857 228.178 469.401 227.929 469.151 227.588C468.833 227.129 468.559 226.642 468.331 226.132C467.785 224.859 467.51 223.449 466.918 222.176C466.645 221.582 466.164 220.97 465.778 220.424C465.344 219.81 464.867 219.377 464.524 218.651C464.411 218.4 464.251 217.99 464.434 217.718C464.477 217.536 464.57 217.467 464.753 217.421C465.047 217.172 465.892 217.489 466.188 217.625C467.032 217.966 467.738 218.286 468.444 218.762C468.762 218.99 469.104 219.422 469.515 219.536H469.994C470.724 219.695 471.545 219.581 472.229 219.786C473.437 220.172 474.53 220.741 475.512 221.355C478.531 223.276 480.985 225.96 482.622 229.133C482.897 229.656 483.011 230.134 483.261 230.678C483.741 231.796 484.334 232.932 484.812 234.023C485.29 235.092 485.747 236.184 486.432 237.07C486.772 237.547 488.14 237.798 488.756 238.048C489.211 238.252 489.918 238.434 490.329 238.684C491.105 239.161 491.877 239.707 492.607 240.231C492.972 240.504 494.111 241.072 494.179 241.528C492.357 241.483 490.943 241.664 489.757 242.166C489.416 242.301 488.869 242.301 488.823 242.734C489.007 242.915 489.028 243.211 489.189 243.461C489.462 243.917 489.939 244.529 490.374 244.85C490.853 245.214 491.331 245.576 491.833 245.894C492.722 246.443 493.725 246.76 494.59 247.305C495.093 247.623 495.594 248.033 496.096 248.374C496.346 248.556 496.504 248.853 496.825 248.964V248.895C496.664 248.691 496.619 248.396 496.46 248.167C496.233 247.941 496.005 247.736 495.776 247.509C495.108 246.628 494.309 245.854 493.406 245.214C492.676 244.711 491.079 244.028 490.785 243.189L490.738 243.143C491.239 243.097 491.833 242.915 492.313 242.777C493.086 242.572 493.793 242.618 494.591 242.414C494.956 242.323 495.32 242.208 495.687 242.098V241.89C495.274 241.483 494.979 240.935 494.547 240.549C493.386 239.549 492.108 238.572 490.786 237.751C490.077 237.297 489.165 237.002 488.414 236.615C488.141 236.478 487.686 236.411 487.525 236.182C487.115 235.682 486.886 235.024 486.591 234.431C485.917 233.136 485.293 231.816 484.722 230.473C484.311 229.587 484.06 228.701 483.559 227.881C481.21 224.014 478.658 221.673 474.737 219.375C473.893 218.897 472.891 218.692 471.821 218.443C471.249 218.419 470.681 218.375 470.11 218.353C469.745 218.192 469.379 217.76 469.061 217.555C468.248 217.043 466.635 216.158 465.306 216.138L465.303 216.141ZM470.927 221.762C470.54 221.762 470.268 221.809 469.993 221.877V221.921H470.037C470.221 222.285 470.54 222.537 470.766 222.855C470.95 223.219 471.11 223.582 471.292 223.946L471.337 223.901C471.658 223.674 471.817 223.31 471.817 222.763C471.679 222.603 471.658 222.445 471.543 222.285C471.407 222.059 471.11 221.945 470.927 221.762Z" fill="#00758F"/>
</g>
<circle cx="285.063" cy="430.063" r="50.0626" stroke="#62ED89" stroke-width="2"/>
<g clip-path="url(#clip11_46_150)">
<path d="M260.161 423.1C260.161 423.1 258.91 422.197 260.411 420.992L263.907 417.861C263.907 417.861 264.907 416.808 265.965 417.726L298.226 442.184V453.913C298.226 453.913 298.21 455.754 295.85 455.551L260.161 423.1Z" fill="#2489CA"/>
<path d="M268.476 430.659L260.161 438.23C260.161 438.23 259.306 438.866 260.161 440.003L264.021 443.52C264.021 443.52 264.938 444.506 266.293 443.384L275.109 436.69L268.476 430.659Z" fill="#1070B3"/>
<path d="M283.075 430.722L298.325 419.061L298.226 407.396C298.226 407.396 297.575 404.85 295.402 406.175L275.109 424.67L283.075 430.722Z" fill="#0877B9"/>
<path d="M295.85 455.566C296.736 456.474 297.809 456.177 297.809 456.177L309.694 450.313C311.215 449.274 311.001 447.986 311.001 447.986V412.968C311.001 411.429 309.428 410.896 309.428 410.896L299.127 405.924C296.877 404.531 295.402 406.175 295.402 406.175C295.402 406.175 297.299 404.808 298.226 407.396V453.699C298.226 454.017 298.158 454.33 298.023 454.612C297.752 455.16 297.163 455.671 295.751 455.457L295.85 455.566Z" fill="#3C99D4"/>
</g>
<circle cx="146.216" cy="58.2156" r="34.2156" stroke="#62ED89" stroke-width="2"/>
<g clip-path="url(#clip12_46_150)">
<path d="M131.249 43.2498H162.063V73.1821H131.249V43.2498Z" fill="url(#paint0_linear_46_150)"/>
<path d="M142.49 58.4875H145.221L143.855 53.2333L142.49 58.4875ZM133.58 45.5932V70.8527H159.771V45.5932H133.58ZM146.72 64.2483L145.721 60.8337H142.023L141.024 64.2483H138.493L142.057 52.1759V50.8541H145.454L149.518 64.2483H146.72ZM153.449 64.2483H150.717V54.0595H153.449V64.2483ZM152.099 52.8369C151.318 52.8369 150.684 52.2155 150.684 51.449C150.684 50.6825 151.317 50.0611 152.099 50.0611C152.881 50.0611 153.515 50.6825 153.515 51.449C153.515 52.2155 152.881 52.8369 152.099 52.8369Z" fill="url(#paint1_linear_46_150)"/>
</g>
<circle cx="199.943" cy="328.943" r="50.943" stroke="#62ED89" stroke-width="2"/>
<g clip-path="url(#clip13_46_150)">
<path d="M225.684 332.484C223.529 332.496 221.664 333.029 220.099 333.821C219.521 332.645 218.943 331.617 218.847 330.85C218.739 329.958 218.607 329.414 218.739 328.349C218.871 327.284 219.473 325.774 219.473 325.65C219.461 325.539 219.341 324.994 218.101 324.981C216.861 324.969 215.79 325.229 215.669 325.563C215.549 325.898 215.308 326.665 215.152 327.457C214.935 328.621 212.672 332.744 211.384 334.911C210.963 334.069 210.602 333.326 210.53 332.731C210.422 331.84 210.289 331.295 210.422 330.231C210.554 329.166 211.156 327.656 211.156 327.532C211.144 327.42 211.023 326.876 209.784 326.863C208.544 326.851 207.473 327.111 207.352 327.445C207.232 327.779 207.1 328.572 206.835 329.339C206.582 330.107 203.573 336.99 202.79 338.786C202.393 339.702 202.044 340.432 201.791 340.927C201.539 341.423 201.779 340.965 201.755 341.014C201.539 341.435 201.418 341.67 201.418 341.67V341.683C201.25 341.992 201.069 342.289 200.985 342.289C200.925 342.289 200.804 341.46 201.009 340.321C201.454 337.931 202.537 334.205 202.526 334.069C202.526 334.007 202.73 333.351 201.827 333.016C200.949 332.682 200.636 333.239 200.563 333.239C200.491 333.239 200.431 333.437 200.431 333.437C200.431 333.437 201.406 329.241 198.565 329.241C196.784 329.241 194.329 331.234 193.113 333.054C192.342 333.487 190.706 334.403 188.972 335.381C188.31 335.753 187.624 336.149 186.974 336.508L186.842 336.359C183.399 332.583 177.032 329.909 177.297 324.833C177.393 322.988 178.019 318.123 189.526 312.23C198.951 307.401 206.498 308.726 207.81 311.672C209.675 315.882 203.777 323.706 193.98 324.833C190.248 325.266 188.286 323.78 187.793 323.223C187.275 322.641 187.203 322.617 187.011 322.728C186.698 322.901 186.89 323.421 187.011 323.731C187.299 324.511 188.503 325.898 190.549 326.591C192.343 327.198 196.724 327.532 202.02 325.427C207.954 323.062 212.588 316.501 211.228 311.016C209.844 305.433 200.841 303.6 192.331 306.708C187.263 308.565 181.774 311.462 177.826 315.263C173.132 319.769 172.386 323.706 172.699 325.34C173.794 331.172 181.606 334.972 184.735 337.783C184.579 337.869 184.435 337.956 184.302 338.03C182.737 338.823 176.779 342.029 175.287 345.421C173.602 349.259 175.552 352.02 176.852 352.392C180.872 353.543 184.988 351.476 187.215 348.071C189.43 344.666 189.165 340.247 188.142 338.229L188.106 338.154L189.333 337.411C190.128 336.929 190.91 336.483 191.596 336.099C191.211 337.176 190.934 338.451 190.79 340.308C190.621 342.487 191.488 345.31 192.631 346.424C193.137 346.907 193.739 346.919 194.112 346.919C195.436 346.919 196.038 345.793 196.7 344.443C197.518 342.797 198.241 340.89 198.241 340.89C198.241 340.89 197.338 346.053 199.805 346.053C200.708 346.053 201.611 344.852 202.02 344.233V344.245C202.02 344.245 202.044 344.208 202.092 344.122C202.143 344.045 202.191 343.966 202.237 343.886V343.862C202.598 343.218 203.404 341.745 204.608 339.306C206.16 336.161 207.653 332.224 207.653 332.224C207.653 332.224 207.798 333.19 208.243 334.774C208.508 335.715 209.085 336.743 209.531 337.746C209.17 338.266 208.953 338.563 208.953 338.563L208.965 338.575C208.676 338.971 208.351 339.393 208.014 339.813C206.786 341.324 205.318 343.045 205.125 343.54C204.897 344.122 204.945 344.555 205.39 344.902C205.715 345.149 206.293 345.199 206.907 345.149C208.014 345.075 208.785 344.79 209.17 344.617C209.772 344.394 210.458 344.06 211.12 343.565C212.323 342.649 213.058 341.349 212.985 339.615C212.949 338.662 212.648 337.721 212.275 336.83C212.384 336.669 212.492 336.508 212.6 336.335C214.502 333.475 215.97 330.33 215.97 330.33C215.97 330.33 216.115 331.296 216.56 332.88C216.789 333.685 217.246 334.564 217.656 335.431C215.874 336.929 214.755 338.662 214.37 339.801C213.659 341.906 214.213 342.859 215.26 343.082C215.73 343.181 216.404 342.958 216.909 342.735C217.535 342.525 218.293 342.166 218.992 341.634C220.195 340.717 221.351 339.442 221.291 337.721C221.254 336.929 221.05 336.149 220.773 335.406C222.29 334.762 224.251 334.391 226.743 334.7C232.099 335.344 233.159 338.786 232.954 340.222C232.75 341.658 231.63 342.451 231.257 342.698C230.884 342.933 230.763 343.02 230.799 343.193C230.848 343.454 231.016 343.441 231.341 343.392C231.786 343.317 234.158 342.216 234.254 339.566C234.398 336.161 231.257 332.447 225.684 332.484ZM184.374 346.808C182.605 348.801 180.113 349.557 179.054 348.913C177.911 348.232 178.356 345.298 180.535 343.181C181.859 341.893 183.58 340.705 184.711 339.974C184.964 339.813 185.349 339.578 185.807 339.293C185.879 339.244 185.927 339.219 185.927 339.219C186.011 339.169 186.108 339.108 186.204 339.046C187.01 342.066 186.24 344.716 184.374 346.808ZM197.314 337.758C196.7 339.306 195.4 343.28 194.618 343.057C193.943 342.871 193.534 339.863 194.485 336.891C194.966 335.393 195.99 333.611 196.591 332.917C197.566 331.803 198.626 331.432 198.891 331.89C199.203 332.484 197.699 336.792 197.314 337.758ZM207.99 343.007C207.725 343.144 207.485 343.243 207.376 343.168C207.292 343.119 207.484 342.933 207.484 342.933C207.484 342.933 208.821 341.46 209.35 340.779C209.651 340.383 210.012 339.925 210.397 339.405V339.553C210.397 341.336 208.736 342.525 207.99 343.007ZM216.223 341.076C216.03 340.927 216.055 340.469 216.705 339.033C216.957 338.464 217.535 337.51 218.534 336.607C218.654 336.978 218.727 337.337 218.715 337.671C218.703 339.9 217.162 340.729 216.223 341.076Z" fill="#CF649A"/>
</g>
<defs>
<linearGradient id="paint0_linear_46_150" x1="161.902" y1="43.0906" x2="131.944" y2="73.288" gradientUnits="userSpaceOnUse">
<stop stop-color="#FFAA2A"/>
<stop offset="1" stop-color="#FFC06C"/>
</linearGradient>
<linearGradient id="paint1_linear_46_150" x1="146.675" y1="45.5508" x2="146.675" y2="70.7252" gradientUnits="userSpaceOnUse">
<stop stop-color="#251200"/>
<stop offset="1"/>
</linearGradient>
<clipPath id="clip0_46_150">
<rect width="77.4743" height="45.7803" fill="white" transform="translate(385.01 373.857)"/>
</clipPath>
<clipPath id="clip1_46_150">
<rect width="45.7803" height="45.7803" fill="white" transform="translate(303.053 187.053)"/>
</clipPath>
<clipPath id="clip2_46_150">
<rect width="56.3449" height="64.2684" fill="white" transform="translate(268.681 34.3352)"/>
</clipPath>
<clipPath id="clip3_46_150">
<rect width="56.3449" height="62.5077" fill="white" transform="translate(550.574 303.933)"/>
</clipPath>
<clipPath id="clip4_46_150">
<rect width="56.3449" height="56.3449" fill="white" transform="translate(516.574 94.5744)"/>
</clipPath>
<clipPath id="clip5_46_150">
<rect width="30.8136" height="30.8136" fill="white" transform="translate(308.249 301.249)"/>
</clipPath>
<clipPath id="clip6_46_150">
<rect width="78.3547" height="40.4979" fill="white" transform="translate(16.7274 286.216)"/>
</clipPath>
<clipPath id="clip7_46_150">
<rect width="40.4979" height="39.6175" fill="white" transform="translate(384.999 99.2063)"/>
</clipPath>
<clipPath id="clip8_46_150">
<rect width="48.4214" height="54.5842" fill="white" transform="translate(47.249 133.727)"/>
</clipPath>
<clipPath id="clip9_46_150">
<rect width="39.6175" height="60.7469" fill="white" transform="translate(177.096 152.651)"/>
</clipPath>
<clipPath id="clip10_46_150">
<rect width="81.8762" height="55.4645" fill="white" transform="translate(414.967 216.129)"/>
</clipPath>
<clipPath id="clip11_46_150">
<rect width="52.8234" height="51.943" fill="white" transform="translate(258.651 404.531)"/>
</clipPath>
<clipPath id="clip12_46_150">
<rect width="30.8136" height="29.9332" fill="white" transform="translate(131.249 43.249)"/>
</clipPath>
<clipPath id="clip13_46_150">
<rect width="61.6273" height="47.541" fill="white" transform="translate(172.651 305.172)"/>
</clipPath>
</defs>
</svg>
